# xmcd
#
# Track frame offsets:
#        187
#        20252
#        37877
#        59152
#        79170
#        97107
#        116972
#        136465
#        159105
#        174952
#
# Disc length: 2611 seconds
#
# Revision: 0
# Processed by: cddbd v1.5PL3 Copyright (c) Steve Scherf et al.
# Submitted via: ExactAudioCopy v0.95a5
#
DISCID=7e0a310a
DTITLE=Swedish Erotica - Swedish Erotica
DYEAR=1989
DGENRE=Hard Rock
TTITLE0=Love Me Or Leave Me
TTITLE1=Downtown
TTITLE2=We're Wild, Young And Free
TTITLE3=Hollywood Dreams
TTITLE4=Loaded Gun
TTITLE5=Rip It Off
TTITLE6=Love On The Line
TTITLE7=Love Hunger
TTITLE8=She Drives Me Crazy
TTITLE9=Break The Walls
EXTD=
EXTT0=
EXTT1=
EXTT2=
EXTT3=
EXTT4=
EXTT5=
EXTT6=
EXTT7=
EXTT8=
EXTT9=
PLAYORDER=
